<svg xmlns="http://www.w3.org/2000/svg" xmlns:xlink="http://www.w3.org/1999/xlink" width="512" zoomAndPan="magnify" viewBox="0 0 384 383.999986" height="512" preserveAspectRatio="xMidYMid meet"><defs><clipPath id="fbcc7cbcfc"><path d="M 38.398438 44.265625 L 334 44.265625 L 334 339.765625 L 38.398438 339.765625 Z M 38.398438 44.265625 " clip-rule="nonzero"></path></clipPath></defs><rect x="-38.4" width="460.8" fill="#ffffff" y="-38.399999" height="460.799983" fill-opacity="1"></rect><rect x="-38.4" width="460.8" fill="#ffffff" y="-38.399999" height="460.799983" fill-opacity="1"></rect><g clip-path="url(#fbcc7cbcfc)"><path fill="#0000b5" d="M 297.683594 128.859375 C 264.859375 96.070312 216.929688 84.476562 172.566406 98.609375 C 165.105469 100.988281 157.859375 104.089844 151.03125 107.816406 L 159.550781 123.394531 C 165.390625 120.207031 171.585938 117.558594 177.972656 115.523438 C 215.960938 103.425781 257.011719 113.335938 285.117188 141.414062 C 326.367188 182.628906 326.367188 249.691406 285.117188 290.90625 C 243.863281 332.125 176.742188 332.117188 135.492188 290.90625 C 115.542969 270.976562 104.554688 244.429688 104.554688 216.160156 C 104.554688 190.878906 113.367188 166.992188 129.488281 147.96875 L 142.339844 160.808594 C 146.378906 164.84375 147.089844 171.105469 144.125 175.984375 C 126.011719 205.757812 129.789062 245.1875 155.523438 270.894531 C 170.625 285.984375 190.460938 293.53125 210.304688 293.53125 C 230.148438 293.53125 249.980469 285.984375 265.085938 270.894531 C 295.292969 240.710938 295.292969 191.601562 265.085938 161.425781 C 243.046875 139.398438 210.101562 132.742188 181.152344 144.445312 L 187.816406 160.898438 C 210.128906 151.867188 235.535156 157.007812 252.523438 173.976562 C 275.800781 197.238281 275.800781 235.082031 252.523438 258.34375 C 229.234375 281.601562 191.363281 281.59375 168.085938 258.34375 C 151.605469 241.878906 146.832031 218.125 153.703125 197.402344 C 156.585938 188.699219 167.660156 186.105469 174.144531 192.585938 L 182.753906 201.1875 C 176.285156 213.078125 178.0625 228.289062 188.113281 238.332031 C 194.230469 244.445312 202.269531 247.503906 210.300781 247.503906 C 218.335938 247.503906 226.375 244.445312 232.492188 238.332031 C 244.726562 226.109375 244.726562 206.21875 232.496094 193.996094 L 232.492188 193.996094 C 226.566406 188.070312 218.683594 184.808594 210.300781 184.808594 C 204.972656 184.808594 199.851562 186.140625 195.300781 188.621094 L 133.082031 126.453125 L 145.605469 97.789062 C 147.070312 94.441406 146.328125 90.542969 143.746094 87.960938 L 103.113281 47.359375 C 101.039062 45.285156 98.078125 44.367188 95.179688 44.917969 C 92.292969 45.457031 89.863281 47.394531 88.6875 50.085938 L 75.132812 81.105469 L 44.085938 94.648438 C 41.394531 95.824219 39.453125 98.25 38.910156 101.136719 C 38.367188 104.019531 39.28125 106.984375 41.359375 109.0625 L 81.996094 149.664062 C 83.695312 151.359375 85.96875 152.261719 88.277344 152.261719 C 89.476562 152.261719 90.6875 152.019531 91.828125 151.523438 L 110.484375 143.386719 C 95.109375 164.367188 86.792969 189.609375 86.789062 216.160156 C 86.789062 249.175781 99.625 280.179688 122.929688 303.460938 C 147.019531 327.53125 178.660156 339.5625 210.304688 339.5625 C 241.953125 339.5625 273.589844 327.53125 297.679688 303.460938 C 345.863281 255.324219 345.855469 176.996094 297.679688 128.863281 Z M 99.757812 69.121094 L 126.898438 96.234375 L 119.589844 112.96875 L 98.835938 92.234375 L 92.449219 85.851562 Z M 63.136719 105.710938 L 79.882812 98.40625 L 107.019531 125.523438 L 90.277344 132.828125 Z M 63.136719 105.710938 " fill-opacity="1" fill-rule="nonzero"></path></g></svg>