<svg xmlns="http://www.w3.org/2000/svg" width="99" height="29"><path fill="rgb(0,0,0)" stroke="rgb(0,0,0)" stroke-width="1" opacity="0" d="M 0 0 L 98.5 0 L 99 0.5 L 99 29 L 53 28.5 L 65 23 L 65.5 21 L 66.5 22 L 75.5 22 L 87 17 Q 85.9 14.3 88.5 15 L 95 6.5 Q 92.5 5 96 3.5 L 95.5 2 L 56.5 2 L 52.5 9 L 50 10.5 L 49.5 19 L 49 10.5 L 47.5 9 L 44 6.5 Q 44.8 2.8 42.5 2 L 3.5 2 L 3 3.5 L 6 8.5 L 6 11 Q 8.7 9.9 8 12.5 L 12 15 Q 10.9 17.7 13.5 17 Q 19.1 23.4 32.5 22 L 34 21.5 Q 33.3 23.8 35.5 23 L 46 28.5 L 0 29 L 0 0 Z "></path><path fill="rgb(0,0,0)" stroke="rgb(0,0,0)" stroke-width="1" opacity="0" d="M 49.5 27 L 50.5 29 L 48 28.5 L 49.5 27 Z "></path><path fill="rgb(173,20,44)" stroke="rgb(173,20,44)" stroke-width="1" opacity="0.6745098039215687" d="M 38.5 5 L 37.5 7 L 38.5 5 Z "></path><path fill="rgb(173,20,44)" stroke="rgb(173,20,44)" stroke-width="1" opacity="0.6745098039215687" d="M 8.5 8 L 24 8.5 L 8.5 9 L 7.5 10 L 8.5 8 Z "></path><path fill="rgb(173,20,44)" stroke="rgb(173,20,44)" stroke-width="1" opacity="0.6745098039215687" d="M 75.5 8 L 91 8.5 L 75.5 9 L 75.5 8 Z "></path><path fill="rgb(173,20,44)" stroke="rgb(173,20,44)" stroke-width="1" opacity="0.6745098039215687" d="M 36.5 10 L 35.5 12 L 36.5 10 Z "></path><path fill="rgb(173,20,44)" stroke="rgb(173,20,44)" stroke-width="1" opacity="0.6745098039215687" d="M 62.5 10 L 63.5 12 L 62.5 10 Z "></path><path fill="rgb(173,20,44)" stroke="rgb(173,20,44)" stroke-width="1" opacity="0.6745098039215687" d="M 31.5 13 L 32.5 15 L 31.5 13 Z "></path><path fill="rgb(173,20,44)" stroke="rgb(173,20,44)" stroke-width="1" opacity="0.6745098039215687" d="M 67.5 13 L 66.5 15 L 67.5 13 Z "></path><path fill="rgb(173,20,44)" stroke="rgb(173,20,44)" stroke-width="1" opacity="0.6745098039215687" d="M 39.5 20 L 38.5 22 L 37 21.5 L 39.5 20 Z "></path><path fill="rgb(174,21,45)" stroke="rgb(174,21,45)" stroke-width="1" opacity="0.48627450980392156" d="M 4.5 2 L 19 2.5 L 4.5 3 L 4.5 2 Z "></path><path fill="rgb(174,21,45)" stroke="rgb(174,21,45)" stroke-width="1" opacity="0.48627450980392156" d="M 21.5 2 L 30 2.5 L 21 3.5 L 21.5 5 Q 18.5 3.5 21.5 2 Z "></path><path fill="rgb(174,21,45)" stroke="rgb(174,21,45)" stroke-width="1" opacity="0.48627450980392156" d="M 69.5 2 L 78 2.5 L 69.5 3 L 69.5 2 Z "></path><path fill="rgb(174,21,45)" stroke="rgb(174,21,45)" stroke-width="1" opacity="0.48627450980392156" d="M 80.5 2 L 95 2.5 L 80.5 3 L 80.5 2 Z "></path><path fill="rgb(174,21,45)" stroke="rgb(174,21,45)" stroke-width="1" opacity="0.48627450980392156" d="M 31.5 3 L 33 5.5 L 32 5.5 L 31.5 3 Z "></path><path fill="rgb(174,21,45)" stroke="rgb(174,21,45)" stroke-width="1" opacity="0.48627450980392156" d="M 67.5 3 L 67 4.5 L 66.5 6 L 66 4.5 L 67.5 3 Z "></path><path fill="rgb(174,21,45)" stroke="rgb(174,21,45)" stroke-width="1" opacity="0.48627450980392156" d="M 39.5 6 L 41.5 9 L 39.5 6 Z "></path><path fill="rgb(174,21,45)" stroke="rgb(174,21,45)" stroke-width="1" opacity="0.48627450980392156" d="M 59.5 6 L 57.5 9 L 59.5 6 Z "></path><path fill="rgb(174,21,45)" stroke="rgb(174,21,45)" stroke-width="1" opacity="0.48627450980392156" d="M 36.5 11 L 36 12.5 Q 36.8 14.8 34.5 14 L 36.5 11 Z "></path><path fill="rgb(174,21,45)" stroke="rgb(174,21,45)" stroke-width="1" opacity="0.48627450980392156" d="M 62.5 11 L 64.5 14 Q 62.3 14.8 63 12.5 L 62.5 11 Z "></path><path fill="rgb(174,21,45)" stroke="rgb(174,21,45)" stroke-width="1" opacity="0.48627450980392156" d="M 65.5 11 L 66.5 13 L 65.5 11 Z "></path><path fill="rgb(174,21,45)" stroke="rgb(174,21,45)" stroke-width="1" opacity="0.48627450980392156" d="M 27.5 13 L 31 13.5 L 27.5 14 L 27.5 13 Z "></path><path fill="rgb(174,21,45)" stroke="rgb(174,21,45)" stroke-width="1" opacity="0.48627450980392156" d="M 68.5 13 L 72 13.5 L 68.5 14 L 68.5 13 Z "></path><path fill="rgb(174,21,45)" stroke="rgb(174,21,45)" stroke-width="1" opacity="0.48627450980392156" d="M 31.5 15 L 33 15.5 L 30.5 17 L 31.5 15 Z "></path><path fill="rgb(174,21,45)" stroke="rgb(174,21,45)" stroke-width="1" opacity="0.48627450980392156" d="M 66.5 15 L 69 16.5 L 67.5 16 L 66.5 15 Z "></path><path fill="rgb(174,21,45)" stroke="rgb(174,21,45)" stroke-width="1" opacity="0.48627450980392156" d="M 60.5 16 L 64.5 21 L 60.5 16 Z "></path><path fill="rgb(174,21,45)" stroke="rgb(174,21,45)" stroke-width="1" opacity="0.48627450980392156" d="M 37.5 17 L 34.5 21 L 37.5 17 Z "></path><path fill="rgb(174,21,45)" stroke="rgb(174,21,45)" stroke-width="1" opacity="0.48627450980392156" d="M 52.5 18 L 53.5 20 L 51 19.5 L 52.5 18 Z "></path><path fill="rgb(173,20,45)" stroke="rgb(173,20,45)" stroke-width="1" opacity="0.3764705882352941" d="M 79.5 2 L 78.5 4 L 79.5 2 Z "></path><path fill="rgb(173,20,45)" stroke="rgb(173,20,45)" stroke-width="1" opacity="0.3764705882352941" d="M 7.5 5 L 22 5.5 L 7.5 6 L 7.5 5 Z "></path><path fill="rgb(173,20,45)" stroke="rgb(173,20,45)" stroke-width="1" opacity="0.3764705882352941" d="M 77.5 5 L 92 5.5 L 77.5 6 L 77.5 5 Z "></path><path fill="rgb(173,20,45)" stroke="rgb(173,20,45)" stroke-width="1" opacity="0.3764705882352941" d="M 32.5 7 L 35 10.5 L 34 10.5 L 32.5 7 Z "></path><path fill="rgb(173,20,45)" stroke="rgb(173,20,45)" stroke-width="1" opacity="0.3764705882352941" d="M 66.5 7 L 66 8.5 L 64.5 11 L 64 9.5 L 66.5 7 Z "></path><path fill="rgb(173,20,45)" stroke="rgb(173,20,45)" stroke-width="1" opacity="0.3764705882352941" d="M 25.5 8 L 28 11.5 L 25.5 12 L 24 11.5 L 26 10.5 L 25.5 8 Z "></path><path fill="rgb(173,20,45)" stroke="rgb(173,20,45)" stroke-width="1" opacity="0.3764705882352941" d="M 73.5 8 L 74 9.5 L 73.5 11 L 75 11.5 L 73.5 12 L 71 11.5 L 73.5 8 Z "></path><path fill="rgb(173,20,45)" stroke="rgb(173,20,45)" stroke-width="1" opacity="0.3764705882352941" d="M 36.5 12 L 39 13.5 L 37.5 14 L 36.5 12 Z "></path><path fill="rgb(173,20,45)" stroke="rgb(173,20,45)" stroke-width="1" opacity="0.3764705882352941" d="M 61.5 12 L 62 14 L 60 13.5 L 61.5 12 Z "></path><path fill="rgb(173,20,45)" stroke="rgb(173,20,45)" stroke-width="1" opacity="0.3764705882352941" d="M 34.5 16 L 32.5 19 L 34.5 16 Z "></path><path fill="rgb(173,20,45)" stroke="rgb(173,20,45)" stroke-width="1" opacity="0.3764705882352941" d="M 64.5 16 L 66.5 19 L 64.5 16 Z "></path><path fill="rgb(173,20,45)" stroke="rgb(173,20,45)" stroke-width="1" opacity="0.3764705882352941" d="M 17 17 L 29 17.5 L 18 18.5 L 18.5 20 L 17 17 Z "></path><path fill="rgb(173,20,45)" stroke="rgb(173,20,45)" stroke-width="1" opacity="0.3764705882352941" d="M 70.5 17 L 83 17.5 L 80 19.5 L 80.5 18 L 70.5 18 L 70.5 17 Z "></path><path fill="rgb(173,20,45)" stroke="rgb(173,20,45)" stroke-width="1" opacity="0.3764705882352941" d="M 41.5 25 Q 43.8 24.3 43 26.5 L 41.5 25 Z "></path><path fill="rgb(173,20,45)" stroke="rgb(173,20,45)" stroke-width="1" opacity="0.3764705882352941" d="M 56 25 L 58 25.5 L 56 26.5 L 56 25 Z "></path><path fill="rgb(173,20,45)" stroke="rgb(173,20,45)" stroke-width="1" opacity="0.5333333333333333" d="M 25 5 L 31.5 5 L 32 6.5 L 30.5 6 L 25.5 7 L 25 5 Z "></path><path fill="rgb(173,20,45)" stroke="rgb(173,20,45)" stroke-width="1" opacity="0.5333333333333333" d="M 67 5 L 73.5 5 L 74 6.5 L 72.5 6 L 67.5 7 L 67 5 Z "></path><path fill="rgb(173,20,45)" stroke="rgb(173,20,45)" stroke-width="1" opacity="0.5333333333333333" d="M 10.5 11 L 24 11.5 L 10.5 12 L 10.5 11 Z "></path><path fill="rgb(173,20,45)" stroke="rgb(173,20,45)" stroke-width="1" opacity="0.5333333333333333" d="M 76.5 11 L 89 11.5 L 76.5 12 L 76.5 11 Z "></path><path fill="rgb(173,20,45)" stroke="rgb(173,20,45)" stroke-width="1" opacity="0.5333333333333333" d="M 52.5 13 L 51.5 15 L 52.5 13 Z "></path><path fill="rgb(173,20,45)" stroke="rgb(173,20,45)" stroke-width="1" opacity="0.5333333333333333" d="M 14.5 14 L 27 14.5 L 14.5 15 L 14.5 14 Z "></path><path fill="rgb(173,20,45)" stroke="rgb(173,20,45)" stroke-width="1" opacity="0.5333333333333333" d="M 72.5 14 L 85 14.5 L 72.5 15 L 72.5 14 Z "></path><path fill="rgb(173,20,45)" stroke="rgb(173,20,45)" stroke-width="1" opacity="0.5333333333333333" d="M 36.5 15 L 35.5 17 L 36.5 15 Z "></path><path fill="rgb(173,20,45)" stroke="rgb(173,20,45)" stroke-width="1" opacity="0.5333333333333333" d="M 62.5 15 Q 64.8 14.3 64 16.5 L 62.5 15 Z "></path><path fill="rgb(173,20,45)" stroke="rgb(173,20,45)" stroke-width="1" opacity="0.5333333333333333" d="M 46.5 18 L 48 18.5 L 45.5 20 L 46.5 18 Z "></path><path fill="rgb(173,20,45)" stroke="rgb(173,20,45)" stroke-width="1" opacity="0.788235294117647" d="M 8 9 L 24.5 9 L 26 10.5 L 24.5 10 L 9.5 10 L 8.5 11 L 8 9 Z "></path><path fill="rgb(173,20,45)" stroke="rgb(173,20,45)" stroke-width="1" opacity="0.788235294117647" d="M 41.5 9 L 42.5 11 L 41.5 9 Z "></path><path fill="rgb(173,20,45)" stroke="rgb(173,20,45)" stroke-width="1" opacity="0.788235294117647" d="M 57.5 9 L 55.5 12 L 57.5 9 Z "></path><path fill="rgb(173,20,45)" stroke="rgb(173,20,45)" stroke-width="1" opacity="0.788235294117647" d="M 74.5 9 L 90.5 9 L 91 10.5 L 89.5 10 L 74.5 10 L 73.5 11 L 74.5 9 Z "></path><path fill="rgb(173,20,45)" stroke="rgb(173,20,45)" stroke-width="1" opacity="0.788235294117647" d="M 69.5 10 L 68.5 12 L 69.5 10 Z "></path><path fill="rgb(173,20,45)" stroke="rgb(173,20,45)" stroke-width="1" opacity="0.788235294117647" d="M 10.5 12 L 26 12.5 L 10.5 13 L 10.5 12 Z "></path><path fill="rgb(173,20,45)" stroke="rgb(173,20,45)" stroke-width="1" opacity="0.788235294117647" d="M 46.5 12 L 47.5 14 L 46.5 12 Z "></path><path fill="rgb(173,20,45)" stroke="rgb(173,20,45)" stroke-width="1" opacity="0.788235294117647" d="M 52.5 12 L 51.5 14 L 52.5 12 Z "></path><path fill="rgb(173,20,45)" stroke="rgb(173,20,45)" stroke-width="1" opacity="0.788235294117647" d="M 73.5 12 L 89 12.5 L 73.5 13 L 73.5 12 Z "></path><path fill="rgb(173,20,45)" stroke="rgb(173,20,45)" stroke-width="1" opacity="0.788235294117647" d="M 14.5 15 L 28 15.5 L 14.5 16 L 14.5 15 Z "></path><path fill="rgb(173,20,45)" stroke="rgb(173,20,45)" stroke-width="1" opacity="0.788235294117647" d="M 71.5 15 L 85 15.5 L 71.5 16 L 70.5 17 L 71.5 15 Z "></path><path fill="rgb(173,20,45)" stroke="rgb(173,20,45)" stroke-width="1" opacity="0.788235294117647" d="M 38.5 17 L 37.5 19 L 38.5 17 Z "></path><path fill="rgb(173,20,45)" stroke="rgb(173,20,45)" stroke-width="1" opacity="0.788235294117647" d="M 60.5 17 L 61.5 19 L 59 18.5 L 60.5 17 Z "></path><path fill="rgb(173,20,45)" stroke="rgb(173,20,45)" stroke-width="1" opacity="0.788235294117647" d="M 55.5 22 L 54.5 24 L 55.5 22 Z "></path><path fill="rgb(173,20,45)" stroke="rgb(173,20,45)" stroke-width="1" opacity="0.788235294117647" d="M 45.5 25 L 44.5 27 L 43 26.5 L 45.5 25 Z "></path><path fill="rgb(173,20,45)" stroke="rgb(173,20,45)" stroke-width="1" opacity="0.788235294117647" d="M 53.5 25 L 56 26.5 L 54.5 27 L 53.5 25 Z "></path><path fill="rgb(173,21,45)" stroke="rgb(173,21,45)" stroke-width="1" opacity="0.9647058823529412" d="M 19.5 3 L 20.5 5 L 19.5 3 Z "></path><path fill="rgb(173,21,45)" stroke="rgb(173,21,45)" stroke-width="1" opacity="0.9647058823529412" d="M 30.5 3 L 31.5 5 L 30.5 3 Z "></path><path fill="rgb(173,21,45)" stroke="rgb(173,21,45)" stroke-width="1" opacity="0.9647058823529412" d="M 68.5 3 L 67.5 5 L 68.5 3 Z "></path><path fill="rgb(173,21,45)" stroke="rgb(173,21,45)" stroke-width="1" opacity="0.9647058823529412" d="M 79.5 3 L 78.5 5 L 79.5 3 Z "></path><path fill="rgb(173,21,45)" stroke="rgb(173,21,45)" stroke-width="1" opacity="0.9647058823529412" d="M 39.5 5 L 42 6.5 L 42.5 5 L 43 6.5 L 42.5 9 L 39.5 5 Z "></path><path fill="rgb(173,21,45)" stroke="rgb(173,21,45)" stroke-width="1" opacity="0.9647058823529412" d="M 56.5 5 L 57.5 7 L 59 6.5 L 56 8.5 L 56 6.5 L 56.5 5 Z "></path><path fill="rgb(173,21,45)" stroke="rgb(173,21,45)" stroke-width="1" opacity="0.9647058823529412" d="M 34.5 7 L 35.5 9 L 34.5 7 Z "></path><path fill="rgb(173,21,45)" stroke="rgb(173,21,45)" stroke-width="1" opacity="0.9647058823529412" d="M 64.5 7 L 63.5 9 L 64.5 7 Z "></path><path fill="rgb(173,21,45)" stroke="rgb(173,21,45)" stroke-width="1" opacity="0.9647058823529412" d="M 46.5 10 L 48 12.5 L 47 12.5 L 46.5 10 Z "></path><path fill="rgb(173,21,45)" stroke="rgb(173,21,45)" stroke-width="1" opacity="0.9647058823529412" d="M 52.5 10 L 52 11.5 L 51.5 13 L 51 11.5 L 52.5 10 Z "></path><path fill="rgb(173,21,45)" stroke="rgb(173,21,45)" stroke-width="1" opacity="0.9647058823529412" d="M 35.5 14 L 34.5 16 L 35.5 14 Z "></path><path fill="rgb(173,21,45)" stroke="rgb(173,21,45)" stroke-width="1" opacity="0.9647058823529412" d="M 63.5 14 L 64.5 16 L 63.5 14 Z "></path><path fill="rgb(173,21,45)" stroke="rgb(173,21,45)" stroke-width="1" opacity="0.9647058823529412" d="M 17.5 16 L 28 16.5 L 17.5 17 L 17.5 16 Z "></path><path fill="rgb(173,21,45)" stroke="rgb(173,21,45)" stroke-width="1" opacity="0.9647058823529412" d="M 72.5 16 L 82 16.5 L 72.5 17 L 72.5 16 Z "></path><path fill="rgb(174,21,45)" stroke="rgb(174,21,45)" stroke-width="1" opacity="0.996078431372549" d="M 5.5 3 L 18.5 3 L 20 4.5 L 7.5 5 L 5.5 3 Z "></path><path fill="rgb(174,21,45)" stroke="rgb(174,21,45)" stroke-width="1" opacity="0.996078431372549" d="M 22.5 3 Q 29.3 1.3 31 4.5 L 24.5 5 L 22.5 3 Z "></path><path fill="rgb(174,21,45)" stroke="rgb(174,21,45)" stroke-width="1" opacity="0.996078431372549" d="M 33.5 3 L 41.5 3 L 43 4.5 L 42 6.5 L 46.5 12 L 39.5 5 Q 33.8 5.8 33.5 3 Z "></path><path fill="rgb(174,21,45)" stroke="rgb(174,21,45)" stroke-width="1" opacity="0.996078431372549" d="M 57.5 3 L 66 3.5 Q 64.3 5.8 59.5 5 L 52.5 12 L 57 6.5 L 56 4.5 L 57.5 3 Z "></path><path fill="rgb(174,21,45)" stroke="rgb(174,21,45)" stroke-width="1" opacity="0.996078431372549" d="M 69.5 3 L 77 3.5 Q 74.6 6.1 68.5 5 L 69.5 3 Z "></path><path fill="rgb(174,21,45)" stroke="rgb(174,21,45)" stroke-width="1" opacity="0.996078431372549" d="M 80.5 3 L 94 3.5 L 91.5 5 L 79.5 5 L 80.5 3 Z "></path><path fill="rgb(174,21,45)" stroke="rgb(174,21,45)" stroke-width="1" opacity="0.996078431372549" d="M 7.5 7 L 24 7.5 L 7.5 8 L 7.5 7 Z "></path><path fill="rgb(174,21,45)" stroke="rgb(174,21,45)" stroke-width="1" opacity="0.996078431372549" d="M 26.5 7 L 29 7.5 L 26.5 8 L 26.5 7 Z "></path><path fill="rgb(174,21,45)" stroke="rgb(174,21,45)" stroke-width="1" opacity="0.996078431372549" d="M 35.5 7 L 38.5 7 L 48 16.5 L 45.5 17 L 36 9.5 L 35.5 7 Z "></path><path fill="rgb(174,21,45)" stroke="rgb(174,21,45)" stroke-width="1" opacity="0.996078431372549" d="M 60.5 7 L 64 7.5 L 58.5 14 L 51.5 17 L 60.5 7 Z "></path><path fill="rgb(174,21,45)" stroke="rgb(174,21,45)" stroke-width="1" opacity="0.996078431372549" d="M 70.5 7 L 73 7.5 L 70.5 8 L 70.5 7 Z "></path><path fill="rgb(174,21,45)" stroke="rgb(174,21,45)" stroke-width="1" opacity="0.996078431372549" d="M 75.5 7 L 92 7.5 L 75.5 8 L 75.5 7 Z "></path><path fill="rgb(174,21,45)" stroke="rgb(174,21,45)" stroke-width="1" opacity="0.996078431372549" d="M 10.5 10 L 25 10.5 L 10.5 11 L 10.5 10 Z "></path><path fill="rgb(174,21,45)" stroke="rgb(174,21,45)" stroke-width="1" opacity="0.996078431372549" d="M 74.5 10 L 89 10.5 L 74.5 11 L 74.5 10 Z "></path><path fill="rgb(174,21,45)" stroke="rgb(174,21,45)" stroke-width="1" opacity="0.996078431372549" d="M 12.5 13 L 26 13.5 L 12.5 14 L 12.5 13 Z "></path><path fill="rgb(174,21,45)" stroke="rgb(174,21,45)" stroke-width="1" opacity="0.996078431372549" d="M 73.5 13 L 87 13.5 L 73.5 14 L 73.5 13 Z "></path><path fill="rgb(174,21,45)" stroke="rgb(174,21,45)" stroke-width="1" opacity="0.996078431372549" d="M 35.5 17 L 33.5 20 L 35.5 17 Z "></path><path fill="rgb(174,21,45)" stroke="rgb(174,21,45)" stroke-width="1" opacity="0.996078431372549" d="M 39.5 17 L 38 19.5 Q 38.8 21.8 36.5 21 L 35 21.5 L 39.5 17 Z "></path><path fill="rgb(174,21,45)" stroke="rgb(174,21,45)" stroke-width="1" opacity="0.996078431372549" d="M 59.5 17 L 63.5 22 L 61 21 L 59.5 17 Z "></path><path fill="rgb(174,21,45)" stroke="rgb(174,21,45)" stroke-width="1" opacity="0.996078431372549" d="M 63.5 17 L 65.5 20 L 63.5 17 Z "></path><path fill="rgb(174,21,45)" stroke="rgb(174,21,45)" stroke-width="1" opacity="0.996078431372549" d="M 21.5 19 L 31 19.5 L 21.5 20 L 21.5 19 Z "></path><path fill="rgb(174,21,45)" stroke="rgb(174,21,45)" stroke-width="1" opacity="0.996078431372549" d="M 68.5 19 L 78 19.5 L 68.5 20 L 68.5 19 Z "></path><path fill="rgb(174,21,45)" stroke="rgb(174,21,45)" stroke-width="1" opacity="0.996078431372549" d="M 40.5 20 L 40 21.5 Q 40.8 23.8 38.5 23 L 40.5 20 Z "></path><path fill="rgb(174,21,45)" stroke="rgb(174,21,45)" stroke-width="1" opacity="0.996078431372549" d="M 43.5 20 L 44 21.5 L 41.5 25 L 41 23.5 L 43.5 20 Z "></path><path fill="rgb(174,21,45)" stroke="rgb(174,21,45)" stroke-width="1" opacity="0.996078431372549" d="M 46.5 20 L 47 21.5 L 44.5 26 L 44 24.5 L 46.5 20 Z "></path><path fill="rgb(174,21,45)" stroke="rgb(174,21,45)" stroke-width="1" opacity="0.996078431372549" d="M 52.5 20 L 55 25.5 L 53 24.5 L 52.5 20 Z "></path><path fill="rgb(174,21,45)" stroke="rgb(174,21,45)" stroke-width="1" opacity="0.996078431372549" d="M 55.5 20 L 58 24.5 L 56 23.5 L 55.5 20 Z "></path><path fill="rgb(174,21,45)" stroke="rgb(174,21,45)" stroke-width="1" opacity="0.996078431372549" d="M 58.5 20 L 60.5 23 Q 58.3 23.8 59 21.5 L 58.5 20 Z "></path><path fill="rgb(175,19,44)" stroke="rgb(175,19,44)" stroke-width="1" opacity="0.15294117647058825" d="M 3.5 2 L 5.5 5 L 7 5.5 L 4.5 7 Q 6.1 5.3 3 3.5 L 3.5 2 Z "></path><path fill="rgb(175,19,44)" stroke="rgb(175,19,44)" stroke-width="1" opacity="0.15294117647058825" d="M 42.5 2 L 43.5 4 L 42.5 2 Z "></path><path fill="rgb(175,19,44)" stroke="rgb(175,19,44)" stroke-width="1" opacity="0.15294117647058825" d="M 56.5 2 L 55.5 4 L 56.5 2 Z "></path><path fill="rgb(175,19,44)" stroke="rgb(175,19,44)" stroke-width="1" opacity="0.15294117647058825" d="M 95.5 2 L 96 3.5 Q 92.9 5.3 94.5 7 L 92 5.5 L 95 3.5 L 95.5 2 Z "></path><path fill="rgb(175,19,44)" stroke="rgb(175,19,44)" stroke-width="1" opacity="0.15294117647058825" d="M 22.5 5 L 25 6.5 L 23.5 6 L 22.5 5 Z "></path><path fill="rgb(175,19,44)" stroke="rgb(175,19,44)" stroke-width="1" opacity="0.15294117647058825" d="M 33.5 5 L 32.5 7 L 33.5 5 Z "></path><path fill="rgb(175,19,44)" stroke="rgb(175,19,44)" stroke-width="1" opacity="0.15294117647058825" d="M 65.5 5 L 66.5 7 L 65.5 5 Z "></path><path fill="rgb(175,19,44)" stroke="rgb(175,19,44)" stroke-width="1" opacity="0.15294117647058825" d="M 75.5 5 L 77 5.5 L 74.5 7 L 75.5 5 Z "></path><path fill="rgb(175,19,44)" stroke="rgb(175,19,44)" stroke-width="1" opacity="0.15294117647058825" d="M 43.5 6 L 45.5 9 L 43.5 6 Z "></path><path fill="rgb(175,19,44)" stroke="rgb(175,19,44)" stroke-width="1" opacity="0.15294117647058825" d="M 55.5 6 L 53.5 9 L 55.5 6 Z "></path><path fill="rgb(175,19,44)" stroke="rgb(175,19,44)" stroke-width="1" opacity="0.15294117647058825" d="M 6.5 8 L 7 10.5 L 6 10.5 L 6.5 8 Z "></path><path fill="rgb(175,19,44)" stroke="rgb(175,19,44)" stroke-width="1" opacity="0.15294117647058825" d="M 47.5 9 L 49 12.5 L 48 12.5 L 47.5 9 Z "></path><path fill="rgb(175,19,44)" stroke="rgb(175,19,44)" stroke-width="1" opacity="0.15294117647058825" d="M 51.5 9 L 51 10.5 L 50.5 13 L 50 10.5 L 51.5 9 Z "></path><path fill="rgb(175,19,44)" stroke="rgb(175,19,44)" stroke-width="1" opacity="0.15294117647058825" d="M 8.5 11 L 10.5 14 L 14.5 17 L 17 17 L 18 19.5 L 15.5 18 L 12 17 Q 13.1 14.3 10.5 15 Q 6.9 13.9 8.5 11 Z "></path><path fill="rgb(175,19,44)" stroke="rgb(175,19,44)" stroke-width="1" opacity="0.15294117647058825" d="M 90.5 11 L 91 12.5 L 87 15 Q 88.1 17.7 85.5 17 L 81.5 20 L 83.5 17 L 90 12.5 L 90.5 11 Z "></path><path fill="rgb(175,19,44)" stroke="rgb(175,19,44)" stroke-width="1" opacity="0.15294117647058825" d="M 48.5 19 L 51 19.5 L 49.5 27 L 48.5 19 Z "></path><path fill="rgb(175,19,44)" stroke="rgb(175,19,44)" stroke-width="1" opacity="0.15294117647058825" d="M 66.5 20 L 67.5 21 L 76 21.5 L 66 22 L 66.5 20 Z "></path><path fill="rgb(175,19,44)" stroke="rgb(175,19,44)" stroke-width="1" opacity="0.15294117647058825" d="M 23.5 21 L 33 21.5 L 23.5 22 L 23.5 21 Z "></path><path fill="rgb(175,19,44)" stroke="rgb(175,19,44)" stroke-width="1" opacity="0.15294117647058825" d="M 36.5 23 L 40 25.5 L 38.5 25 L 36.5 23 Z "></path><path fill="rgb(175,19,44)" stroke="rgb(175,19,44)" stroke-width="1" opacity="0.15294117647058825" d="M 62.5 23 L 61.5 25 L 59.5 26 L 60.5 24 L 62.5 23 Z "></path><path fill="rgb(173,21,44)" stroke="rgb(173,21,44)" stroke-width="1" opacity="0.8745098039215686" d="M 31 8 L 33 8.5 L 33 10.5 L 32.5 12 L 31 8 Z "></path><path fill="rgb(173,21,44)" stroke="rgb(173,21,44)" stroke-width="1" opacity="0.8745098039215686" d="M 66.5 8 Q 68.8 7.3 68 9.5 L 66.5 12 L 66 10.5 L 66.5 8 Z "></path><path fill="rgb(173,21,44)" stroke="rgb(173,21,44)" stroke-width="1" opacity="0.8745098039215686" d="M 27.5 9 Q 29.8 8.3 29 10.5 L 27.5 9 Z "></path><path fill="rgb(173,21,44)" stroke="rgb(173,21,44)" stroke-width="1" opacity="0.8745098039215686" d="M 43.5 9 L 46 9.5 L 45.5 14 L 43 11.5 L 43.5 9 Z "></path><path fill="rgb(173,21,44)" stroke="rgb(173,21,44)" stroke-width="1" opacity="0.8745098039215686" d="M 53.5 9 L 56 9.5 L 53.5 14 L 53.5 9 Z "></path><path fill="rgb(173,21,44)" stroke="rgb(173,21,44)" stroke-width="1" opacity="0.8745098039215686" d="M 70 9 L 72 9.5 L 70 10.5 L 70 9 Z "></path><path fill="rgb(173,21,44)" stroke="rgb(173,21,44)" stroke-width="1" opacity="0.8745098039215686" d="M 41.5 14 L 42.5 16 L 41.5 14 Z "></path><path fill="rgb(173,21,44)" stroke="rgb(173,21,44)" stroke-width="1" opacity="0.8745098039215686" d="M 57.5 14 L 56.5 16 L 57.5 14 Z "></path><path fill="rgb(173,21,44)" stroke="rgb(173,21,44)" stroke-width="1" opacity="0.8745098039215686" d="M 37.5 16 L 34.5 20 L 33.5 18 L 34.5 19 L 37.5 16 Z "></path><path fill="rgb(173,21,44)" stroke="rgb(173,21,44)" stroke-width="1" opacity="0.8745098039215686" d="M 61.5 16 Q 63.8 20.3 66 18.5 L 64.5 20 L 61.5 16 Z "></path><path fill="rgb(173,21,44)" stroke="rgb(173,21,44)" stroke-width="1" opacity="0.8745098039215686" d="M 19.5 18 L 30 18.5 L 21.5 19 L 20.5 20 L 19.5 18 Z "></path><path fill="rgb(173,21,44)" stroke="rgb(173,21,44)" stroke-width="1" opacity="0.8745098039215686" d="M 39.5 18 L 40.5 20 L 39.5 18 Z "></path><path fill="rgb(173,21,44)" stroke="rgb(173,21,44)" stroke-width="1" opacity="0.8745098039215686" d="M 44.5 18 L 43.5 20 L 44.5 18 Z "></path><path fill="rgb(173,21,44)" stroke="rgb(173,21,44)" stroke-width="1" opacity="0.8745098039215686" d="M 54.5 18 L 55.5 20 L 54.5 18 Z "></path><path fill="rgb(173,21,44)" stroke="rgb(173,21,44)" stroke-width="1" opacity="0.8745098039215686" d="M 69.5 18 L 80 18.5 Q 78.8 21.3 77.5 19 L 69.5 19 L 69.5 18 Z "></path><path fill="rgb(173,21,44)" stroke="rgb(173,21,44)" stroke-width="1" opacity="0.8745098039215686" d="M 26.5 20 L 31 20.5 L 26.5 21 L 26.5 20 Z "></path><path fill="rgb(173,21,44)" stroke="rgb(173,21,44)" stroke-width="1" opacity="0.8745098039215686" d="M 68.5 20 L 73 20.5 L 68.5 21 L 68.5 20 Z "></path><path fill="rgb(173,21,44)" stroke="rgb(173,21,44)" stroke-width="1" opacity="0.8745098039215686" d="M 42.5 21 L 43.5 23 L 42.5 21 Z "></path><path fill="rgb(173,21,44)" stroke="rgb(173,21,44)" stroke-width="1" opacity="0.8745098039215686" d="M 45.5 21 L 46.5 23 L 45.5 21 Z "></path><path fill="rgb(173,21,44)" stroke="rgb(173,21,44)" stroke-width="1" opacity="0.8745098039215686" d="M 53.5 21 L 52.5 23 L 53.5 21 Z "></path><path fill="rgb(173,21,44)" stroke="rgb(173,21,44)" stroke-width="1" opacity="0.8745098039215686" d="M 48.5 22 L 49 25.5 L 47 24.5 L 48.5 22 Z "></path><path fill="rgb(173,21,44)" stroke="rgb(173,21,44)" stroke-width="1" opacity="0.8745098039215686" d="M 50.5 22 L 52 24.5 L 50 25.5 L 50.5 22 Z "></path><path fill="rgb(174,21,45)" stroke="rgb(174,21,45)" stroke-width="1" opacity="0.6431372549019608" d="M 37.5 5 L 36.5 7 L 34 6.5 L 37.5 5 Z "></path><path fill="rgb(174,21,45)" stroke="rgb(174,21,45)" stroke-width="1" opacity="0.6431372549019608" d="M 60.5 5 L 65 6.5 L 62.5 7 L 60.5 5 Z "></path><path fill="rgb(174,21,45)" stroke="rgb(174,21,45)" stroke-width="1" opacity="0.6431372549019608" d="M 6.5 6 L 23 6.5 L 6.5 7 L 6.5 6 Z "></path><path fill="rgb(174,21,45)" stroke="rgb(174,21,45)" stroke-width="1" opacity="0.6431372549019608" d="M 26.5 6 L 30 6.5 L 26.5 7 L 26.5 6 Z "></path><path fill="rgb(174,21,45)" stroke="rgb(174,21,45)" stroke-width="1" opacity="0.6431372549019608" d="M 69.5 6 L 73 6.5 L 69.5 7 L 69.5 6 Z "></path><path fill="rgb(174,21,45)" stroke="rgb(174,21,45)" stroke-width="1" opacity="0.6431372549019608" d="M 76.5 6 L 93 6.5 L 76.5 7 L 76.5 6 Z "></path><path fill="rgb(174,21,45)" stroke="rgb(174,21,45)" stroke-width="1" opacity="0.6431372549019608" d="M 9.5 12 L 10.5 14 L 9.5 12 Z "></path><path fill="rgb(173,21,45)" stroke="rgb(173,21,45)" stroke-width="1" opacity="0.592156862745098" d="M 32.5 2 L 41 2.5 L 32.5 3 L 32.5 2 Z "></path><path fill="rgb(173,21,45)" stroke="rgb(173,21,45)" stroke-width="1" opacity="0.592156862745098" d="M 58.5 2 L 67 2.5 L 58.5 3 L 58.5 2 Z "></path><path fill="rgb(173,21,45)" stroke="rgb(173,21,45)" stroke-width="1" opacity="0.592156862745098" d="M 21.5 3 L 22.5 5 L 21.5 3 Z "></path><path fill="rgb(173,21,45)" stroke="rgb(173,21,45)" stroke-width="1" opacity="0.592156862745098" d="M 59.5 13 L 58.5 15 L 59.5 13 Z "></path><path fill="rgb(173,21,45)" stroke="rgb(173,21,45)" stroke-width="1" opacity="0.592156862745098" d="M 34.5 14 L 35.5 16 L 34.5 14 Z "></path><path fill="rgb(173,21,45)" stroke="rgb(173,21,45)" stroke-width="1" opacity="0.592156862745098" d="M 58.5 22 L 59.5 24 L 58.5 22 Z "></path></svg>